<svg viewBox="0 0 1000 1004.1441" xmlns="http://www.w3.org/2000/svg"><path fill='#fff' d="m741 658.144c-7 9-20 11-29 4-9-6-12-19-5-29 6-8 12-17 17-26 54-90 61-200 22-297-3-7-6-15-10-22-3-6-7-13-11-20-23-39-54-73-92-101-148-108-357-75-465 74s-75 358 74 466c66 48 146 69 226 62 5-1 9-1 13-2 5 0 11-1 16-2 12-2 24-5 36-8 10-4 22 3 25 14 4 11-3 22-14 26-13 3-26 7-40 9l-18 3c-4 1-9 1-14 2-90 8-180-16-255-70-167-122-204-356-83-524s356-205 524-83c42 31 77 69 103 113 4 8 8 15 12 23s8 16 11 25c45 108 36 232-24 334-6 10-12 19-19 29zm-324-241v-125c0-12 9-21 21-21s20 9 20 21v125h125c12 0 21 9 21 20s-9 21-21 21h-125v125c0 12-9 21-20 21s-21-9-21-21v-125h-125c-12 0-21-9-21-21s9-20 21-20zm237 458h126l45-147h-215zm183-188c18 0 33 15 33 33 0 3 0 7-1 10l-51 164c-4 14-17 23-32 23h-138c-15 0-28-9-33-24l-53-179s0-1-1-1c-3-11-8-22-16-32-4-7-9-10-16-10-12 0-21-9-21-21s9-20 21-20c21 0 39 9 51 27 6 10 12 20 16 30zm-174 301c-16 0-29-13-29-30s13-29 29-29 30 13 30 29-14 30-30 30zm105 0c-17 0-30-13-30-30s13-29 30-29 29 13 29 29-14 30-29 30z"/></svg>