<svg fill="none" height="24" viewBox="0 0 24 24" width="24" xmlns="http://www.w3.org/2000/svg"><g  stroke="#33363f" stroke-linecap="round" stroke-width="2"><path d="m4 4h1.62563c.56737 0 .85106 0 1.07651.12433.09297.05128.17719.11703.24948.19479.1753.18857.24411.46378.38171 1.01421l.1816.72639c.10107.4043.15161.60645.22962.77604.27079.58873.81005 1.00977 1.44689 1.1297.18344.03454.39182.03454.80856.03454"/><path d="m18 17h-10.44909c-.1462 0-.21929 0-.27475-.0062-.58759-.0658-.99011-.6243-.86671-1.2025.01164-.0546.03476-.1239.08099-.2626.05133-.154.07699-.231.10535-.2989.29028-.6956.94698-1.169 1.69869-1.2244.07342-.0054.15458-.0054.31689-.0054h5.38863" stroke-linejoin="round"/><path d="m14.5279 14h-3.5536c-1.21592 0-1.82388 0-2.29283-.2754-.19804-.1163-.37458-.2658-.52186-.4421-.34874-.4173-.44869-1.017-.64858-2.2163-.20254-1.21527-.30381-1.8229-.0634-2.27296.10036-.18788.23959-.35223.40841-.48211.40441-.31113 1.02042-.31113 2.25246-.31113h6.6554c1.4504 0 2.1756 0 2.4687.47427s-.0312 1.1229-.6798 2.42013l-.4472.8945c-.5379 1.0758-.8069 1.6137-1.2902 1.9124s-1.0847.2987-2.2875.2987z"/></g><circle cx="17" cy="20" fill="#33363f" r="1"/><circle cx="9" cy="20" fill="#33363f" r="1"/></svg>